<svg xmlns="http://www.w3.org/2000/svg" width="480" height="300" viewBox="0 0 480 300"><defs>
 <linearGradient id="bg" x2="1" y2="1"><stop stop-color="#203e45"/><stop offset="1" stop-color="#0a1b29"/></linearGradient>
 <radialGradient id="halo"><stop stop-color="#bbdfce" stop-opacity=".24"/><stop offset="1" stop-color="#bbdfce" stop-opacity="0"/></radialGradient>
 <radialGradient id="orb" cx=".3" cy=".2" r=".9"><stop stop-color="#fff8d2"/><stop offset=".3" stop-color="#d3ddba"/><stop offset=".75" stop-color="#729e90"/><stop offset="1" stop-color="#34595e"/></radialGradient>
 <linearGradient id="mint" x2=".25" y2="1"><stop stop-color="#f4f3c6"/><stop offset=".5" stop-color="#a8dcc1"/><stop offset="1" stop-color="#426b7c"/></linearGradient>
 <linearGradient id="pink" x2=".7" y2="1"><stop stop-color="#ffded0"/><stop offset=".5" stop-color="#ed9f9e"/><stop offset="1" stop-color="#9d5e78"/></linearGradient>
 <linearGradient id="petal" x2=".5" y2="1"><stop stop-color="#ffeae0"/><stop offset=".6" stop-color="#edb8bb"/><stop offset="1" stop-color="#bf7d95"/></linearGradient>
 <linearGradient id="gold" x2=".4" y2="1"><stop stop-color="#ffedaf"/><stop offset=".6" stop-color="#dfa064"/><stop offset="1" stop-color="#a35143"/></linearGradient>
 <linearGradient id="aurora" x2="0" y2="1"><stop stop-color="#c9f2bf" stop-opacity="0"/><stop offset=".4" stop-color="#a1e6c7"/><stop offset=".72" stop-color="#889ad4" stop-opacity=".8"/><stop offset="1" stop-color="#547da0" stop-opacity="0"/></linearGradient>
 <radialGradient id="light"><stop stop-color="#fffce3"/><stop offset=".17" stop-color="#ffe7a2" stop-opacity=".7"/><stop offset=".6" stop-color="#d5bf76" stop-opacity=".15"/><stop offset="1" stop-color="#d5bf76" stop-opacity="0"/></radialGradient>
 <radialGradient id="edge"><stop offset=".24" stop-color="#0a1421" stop-opacity="0"/><stop offset="1" stop-color="#040e1a" stop-opacity=".95"/></radialGradient>
 <linearGradient id="glass" x2="1" y2="1"><stop stop-color="#f5f8e8" stop-opacity=".75"/><stop offset=".3" stop-color="#c0e4db" stop-opacity=".08"/><stop offset=".75" stop-color="#79acb4" stop-opacity=".2"/><stop offset="1" stop-color="#132f40" stop-opacity=".85"/></linearGradient>
 <linearGradient id="sweep"><stop stop-color="#fffbe1" stop-opacity="0"/><stop offset=".5" stop-color="#fffbe1"/><stop offset="1" stop-color="#bdebd7" stop-opacity="0"/></linearGradient>
 <filter id="soft" x="-60%" y="-60%" width="220%" height="220%"><feGaussianBlur stdDeviation="14"/></filter>
 <filter id="glow" x="-80%" y="-80%" width="260%" height="260%"><feGaussianBlur stdDeviation="5" result="b"/><feMerge><feMergeNode in="b"/><feMergeNode in="SourceGraphic"/></feMerge></filter>
 <pattern id="grain" width="21" height="23" patternUnits="userSpaceOnUse"><circle cx="2" cy="3" r="0.7" fill="#e5efe1" /><circle cx="15" cy="16" r="0.5" fill="#e5efe1" /></pattern>
 <clipPath id="bounds"><rect x="0" y="0" width="480" height="300" rx="0" fill="white" /></clipPath>
 </defs><g clip-path="url(#bounds)"><rect x="0" y="0" width="480" height="300" rx="0" fill="url(#bg)" /><circle cx="210" cy="130" r="230" fill="url(#halo)" /><circle cx="25" cy="24" r="2.6" fill="#c5dec5" opacity="0.25"/><circle cx="104" cy="71" r="1.2" fill="#c5dec5" opacity="0.41000000000000003"/><circle cx="183" cy="118" r="1.2" fill="#c5dec5" opacity="0.5700000000000001"/><circle cx="262" cy="165" r="1.2" fill="#c5dec5" opacity="0.73"/><circle cx="341" cy="212" r="1.2" fill="#c5dec5" opacity="0.25"/><circle cx="420" cy="60" r="2.6" fill="#c5dec5" opacity="0.41000000000000003"/><circle cx="68" cy="107" r="1.2" fill="#c5dec5" opacity="0.5700000000000001"/><circle cx="147" cy="154" r="1.2" fill="#c5dec5" opacity="0.73"/><circle cx="226" cy="201" r="1.2" fill="#c5dec5" opacity="0.25"/><circle cx="305" cy="49" r="1.2" fill="#c5dec5" opacity="0.41000000000000003"/><circle cx="384" cy="96" r="2.6" fill="#c5dec5" opacity="0.5700000000000001"/><circle cx="32" cy="143" r="1.2" fill="#c5dec5" opacity="0.73"/><circle cx="111" cy="190" r="1.2" fill="#c5dec5" opacity="0.25"/><circle cx="190" cy="38" r="1.2" fill="#c5dec5" opacity="0.41000000000000003"/><circle cx="269" cy="85" r="1.2" fill="#c5dec5" opacity="0.5700000000000001"/><circle cx="348" cy="132" r="2.6" fill="#c5dec5" opacity="0.73"/><circle cx="427" cy="179" r="1.2" fill="#c5dec5" opacity="0.25"/><circle cx="75" cy="27" r="1.2" fill="#c5dec5" opacity="0.41000000000000003"/><circle cx="154" cy="74" r="1.2" fill="#c5dec5" opacity="0.5700000000000001"/><circle cx="233" cy="121" r="1.2" fill="#c5dec5" opacity="0.73"/><circle cx="312" cy="168" r="2.6" fill="#c5dec5" opacity="0.25"/><circle cx="391" cy="215" r="1.2" fill="#c5dec5" opacity="0.41000000000000003"/><circle cx="39" cy="63" r="1.2" fill="#c5dec5" opacity="0.5700000000000001"/><circle cx="118" cy="110" r="1.2" fill="#c5dec5" opacity="0.73"/><circle cx="197" cy="157" r="1.2" fill="#c5dec5" opacity="0.25"/><path d="M-25 240C95 300 160 8 335 122S504 260 500 100" fill="none" stroke="#cbe7ba" stroke-width="2" opacity="0.4"/><circle cx="233" cy="147" r="81.6" fill="url(#orb)" opacity=".26" filter="url(#soft)"/><circle cx="233" cy="147" r="48" fill="url(#orb)" /><circle cx="221.48" cy="134.04" r="4.32" fill="#fff7dc" opacity=".8"/><ellipse cx="233" cy="149" rx="114" ry="46" fill="none" stroke="#bedab8" stroke-width="1.5" transform="rotate(-28 233 149)" opacity=".6"/><g fill="none" stroke="#e1f2cc" stroke-width="5" stroke-linecap="round" stroke-linejoin="round" filter="url(#glow)"><path d="M119 86V116H148V103M339 126H309V103M336 179H314V201H341M144 210H120V236H142"/></g><path d="M0 -8Q1.2 -1.2 8 0Q1.2 1.2 0 8Q-1.2 1.2 -8 0Q-1.2 -1.2 0 -8" fill="#fcf1cf" transform="translate(183 60)"/><path d="M0 -13Q1.95 -1.95 13 0Q1.95 1.95 0 13Q-1.95 1.95 -13 0Q-1.95 -1.95 0 -13" fill="#fcf1cf" transform="translate(369 215)"/><rect x="0" y="0" width="480" height="300" rx="0" fill="url(#grain)" opacity=".065"/></g></svg>
